<svg xmlns="http://www.w3.org/2000/svg" viewBox="0 0 120 75" width="120" height="75">
	<style>
		tspan { white-space:pre }
		.shp0 { fill: #f5c506 } 
	</style>
	<path id="Shape 2" class="shp0" d="M86.75 73L28.84 73C15.68 73 5 62.46 5 49.45C5 38.77 12.25 29.86 22.12 26.98C22.1 26.62 22.03 26.27 22.03 25.91C22.03 16.62 29.66 9.09 39.06 9.09C40.95 9.09 42.73 9.46 44.42 10.02C49.38 3.37 57.3 -1 66.31 -1C79.27 -1 90.06 7.95 92.83 19.91C104.94 22.64 114 33.3 114 46.09C114 60.95 101.8 73 86.75 73ZM66.31 46.09L66.31 25.91L52.69 25.91L52.69 46.09L42.26 46.09L59.5 63.12L76.74 46.09L66.31 46.09Z" />
</svg>