<svg xmlns="http://www.w3.org/2000/svg" viewBox="0 0 165 146" width="150" height="133">
	<style>
		tspan { white-space:pre }
		.shp0 { fill-opacity: 0.902;fill: #bc7d00 } 
	</style>
	<path id="twitter" class="shp0" d="M163 26.31L147.72 41.63C147.72 41.63 147.72 40.24 147.72 44.18C147.72 46.98 147.27 49.65 146.62 52.25C146.26 73.31 139.56 101.25 112.06 123.3C57.96 166.67 0 128.4 0 128.4C45.84 128.4 45.84 113.09 45.84 113.09C35.66 113.09 15.28 92.67 15.28 92.67C20.37 97.77 30.56 92.67 30.56 92.67C5.09 77.36 5.09 62.04 5.09 62.04C10.19 67.15 20.37 62.04 20.37 62.04C-5.09 41.63 10.19 16.1 10.19 16.1C15.28 41.63 81.5 51.83 81.5 51.83L82.34 51.41C81.82 49.08 81.5 44.12 81.5 41.63C81.5 23.3 96.32 11 114.61 11C124.67 11 133.58 15.6 139.65 22.7L142.62 21.21L157.91 11L147.72 31.42L163 26.31Z" />
</svg>